<svg width="320" height="320" viewBox="0 0 320 320" fill="none" xmlns="http://www.w3.org/2000/svg">
<path d="M60.7611 109.683C61.3876 101.625 63.6664 93.7823 67.4555 86.6432C77.6123 67.5776 100.998 50.1248 123.584 54.3872C144.217 58.2784 159.929 74.2976 181.363 76.9728C217.203 81.4528 228.723 55.2128 262.003 69.9328C275.564 75.9296 284.998 87.296 286.54 102.221C288.377 120.045 278.124 132.544 274.169 148.973C269.606 167.917 279.782 185.178 282.784 203.373C284.512 213.875 283.225 224.922 277.44 234.029C269.568 246.432 254.31 251.667 241.523 257.421H63.6027C63.6027 257.421 52.7227 255.501 39.2827 228.621C25.8427 201.741 36.7227 181.901 53.3627 162.061C61.9451 151.821 62.5659 140.173 61.1579 127.462C60.446 121.563 60.3132 115.608 60.7611 109.683Z" fill="#8D8D8D"/>
<path opacity="0.7" d="M60.7611 109.683C61.3876 101.625 63.6664 93.7823 67.4555 86.6432C77.6123 67.5776 100.998 50.1248 123.584 54.3872C144.217 58.2784 159.929 74.2976 181.363 76.9728C217.203 81.4528 228.723 55.2128 262.003 69.9328C275.564 75.9296 284.998 87.296 286.54 102.221C288.377 120.045 278.124 132.544 274.169 148.973C269.606 167.917 279.782 185.178 282.784 203.373C284.512 213.875 283.225 224.922 277.44 234.029C269.568 246.432 254.31 251.667 241.523 257.421H63.6027C63.6027 257.421 52.7227 255.501 39.2827 228.621C25.8427 201.741 36.7227 181.901 53.3627 162.061C61.9451 151.821 62.5659 140.173 61.1579 127.462C60.446 121.563 60.3132 115.608 60.7611 109.683Z" fill="white"/>
<path d="M265.869 199.328C265.562 197.274 265.184 195.238 264.755 193.229L245.491 202.566L265.869 199.328Z" fill="#8D8D8D"/>
<path d="M170.643 127.859C170.643 127.859 113.683 150.541 82.8927 161.542C77.7611 169.765 73.8646 178.697 71.3279 188.051L120.237 166.682L81.5359 192L109.696 187.078L108.992 190.592L184.96 170.202L75.2063 220.16L92.0895 204.678L67.8399 213.958V214.15C67.8248 226.428 70.086 238.601 74.5087 250.054L182.138 208.902L123.027 239.866L228.576 201.862L200.416 208.198L239.827 188.493H218.048L258.56 174.08C257.224 171.051 255.748 168.105 254.131 165.242L173.011 192.717L248.608 156.538C239.831 144.164 228.342 133.96 215.019 126.705C201.695 119.451 186.89 115.337 171.734 114.679C156.578 114.02 141.471 116.835 127.569 122.907C113.667 128.98 101.337 138.149 91.5199 149.715L170.643 127.859Z" fill="#8D8D8D"/>
<path d="M239.865 241.28C238.073 241.28 254.208 232.742 266.195 226.528C267.206 218.359 267.206 210.096 266.195 201.926L165.273 244.083L192 223.68L99.5195 257.453H257.075C260.242 250.898 262.672 244.012 264.32 236.922C255.852 238.579 241.811 241.28 239.865 241.28Z" fill="#8D8D8D"/>
<g opacity="0.3">
<path d="M265.869 199.328C265.562 197.274 265.184 195.238 264.755 193.229L245.491 202.566L265.869 199.328Z" fill="white"/>
<path d="M170.643 127.859C170.643 127.859 113.683 150.541 82.8927 161.542C77.7611 169.765 73.8646 178.697 71.3279 188.051L120.237 166.682L81.5359 192L109.696 187.078L108.992 190.592L184.96 170.202L75.2063 220.16L92.0895 204.678L67.8399 213.958V214.15C67.8248 226.428 70.086 238.601 74.5087 250.054L182.138 208.902L123.027 239.866L228.576 201.862L200.416 208.198L239.827 188.493H218.048L258.56 174.08C257.224 171.051 255.748 168.105 254.131 165.242L173.011 192.717L248.608 156.538C239.831 144.164 228.342 133.96 215.019 126.705C201.695 119.451 186.89 115.337 171.734 114.679C156.578 114.02 141.471 116.835 127.569 122.907C113.667 128.98 101.337 138.149 91.5199 149.715L170.643 127.859Z" fill="white"/>
<path d="M239.865 241.28C238.073 241.28 254.208 232.742 266.195 226.528C267.206 218.359 267.206 210.096 266.195 201.926L165.273 244.083L192 223.68L99.5195 257.453H257.075C260.242 250.898 262.672 244.012 264.32 236.922C255.852 238.579 241.811 241.28 239.865 241.28Z" fill="white"/>
</g>
<path d="M140.877 99.3728C150.244 99.3728 157.837 91.7795 157.837 82.4128C157.837 73.046 150.244 65.4528 140.877 65.4528C131.51 65.4528 123.917 73.046 123.917 82.4128C123.917 91.7795 131.51 99.3728 140.877 99.3728Z" fill="white"/>
<path d="M278.156 257.453H284.556" stroke="#2E353A" stroke-miterlimit="10"/>
<path d="M67.5967 257.453H273.037" stroke="#2E353A" stroke-miterlimit="10"/>
<path d="M70.957 257.453L105.063 229.453C105.262 229.312 105.488 229.213 105.727 229.162C105.966 229.112 106.213 229.11 106.453 229.158C106.692 229.206 106.92 229.302 107.121 229.441C107.322 229.58 107.493 229.758 107.623 229.965C108.64 231.488 106.605 242.182 106.605 242.182L112.205 242.694L113.223 246.253L116.787 249.818L117.293 257.453H70.957Z" fill="#2E353A" stroke="#2E353A" stroke-miterlimit="10"/>
<path d="M42.9503 256.269L64.8447 240.486C64.8447 240.486 68.4095 239.981 67.8975 243.539C67.3855 247.098 62.2975 251.181 62.2975 251.181L62.8095 255.251L63.6031 257.453H37.8623L42.9503 256.269Z" fill="#2E353A" stroke="#2E353A" stroke-miterlimit="10"/>
<path d="M224.344 98.4253L176.861 95.5377C173.802 95.3517 171.171 97.6806 170.985 100.739L167.8 153.116C167.614 156.175 169.943 158.806 173.002 158.992L220.486 161.879C223.544 162.065 226.175 159.736 226.361 156.678L229.546 104.301C229.732 101.242 227.403 98.6113 224.344 98.4253Z" fill="#8D8D8D" stroke="#2E353A" stroke-miterlimit="10"/>
<path d="M165.709 123.162C165.709 123.162 162.081 127.642 151.418 130.842C140.756 134.042 138.189 135.75 138.189 135.75C138.189 135.75 132.001 137.882 129.869 143.213C127.738 148.544 129.018 151.322 141.389 150.47C153.761 149.619 179.361 139.59 179.361 139.59C179.361 139.59 184.058 131.053 182.99 123.802C181.921 116.55 167.841 120.173 165.709 123.162Z" fill="white"/>
<mask id="mask0_393_4476" style="mask-type:luminance" maskUnits="userSpaceOnUse" x="129" y="119" width="55" height="32">
<path d="M165.709 123.162C165.709 123.162 162.081 127.642 151.418 130.842C140.756 134.042 138.189 135.75 138.189 135.75C138.189 135.75 132.001 137.882 129.869 143.213C127.738 148.544 129.018 151.322 141.389 150.47C153.761 149.619 179.361 139.59 179.361 139.59C179.361 139.59 184.058 131.053 182.99 123.802C181.921 116.55 167.841 120.173 165.709 123.162Z" fill="white"/>
</mask>
<g mask="url(#mask0_393_4476)">
<g style="mix-blend-mode:multiply" opacity="0.49">
<path d="M137.172 145.709C137.172 145.709 137.421 148.147 137.645 150.617C138.765 150.617 140.001 150.566 141.389 150.47C153.761 149.613 179.361 139.59 179.361 139.59C181.181 136.115 182.407 132.36 182.989 128.48L181.549 124.371C181.549 124.371 174.292 132.48 167.469 137.171C160.647 141.862 137.172 145.709 137.172 145.709Z" fill="#8D8D8D"/>
</g>
</g>
<path d="M165.709 123.162C165.709 123.162 162.081 127.642 151.418 130.842C140.756 134.042 138.189 135.75 138.189 135.75C138.189 135.75 132.001 137.882 129.869 143.213C127.738 148.544 129.018 151.322 141.389 150.47C153.761 149.619 179.361 139.59 179.361 139.59C179.361 139.59 184.058 131.053 182.99 123.802C181.921 116.55 167.841 120.173 165.709 123.162Z" stroke="#2E353A" stroke-miterlimit="10"/>
<path d="M138.631 147.04C138.631 147.04 164.109 143.085 176.724 135.91" stroke="#2E353A" stroke-width="0.5" stroke-miterlimit="10"/>
<path d="M160.071 146.278C160.826 143.808 161.632 139.462 159.949 135.11C159.065 132.754 157.373 130.788 155.175 129.562C154.029 130.003 152.781 130.432 151.418 130.842L150.426 131.142C152.666 132.518 156.243 135.482 156.538 140.442C156.721 142.746 156.68 145.063 156.416 147.36C157.639 147.008 158.861 146.65 160.071 146.278Z" fill="#2E353A" stroke="#2E353A" stroke-miterlimit="10"/>
<path d="M183.041 112.691C181.995 111.662 180.755 110.85 179.393 110.304C170.234 106.822 165.313 117.286 163.61 124.442C163.61 124.442 165.742 126.15 171.073 125.293C176.404 124.435 184.084 120.813 184.942 117.824C185.441 115.962 184.455 114.125 183.041 112.691Z" fill="#2E353A" stroke="#2E353A" stroke-miterlimit="10"/>
<path d="M139.898 138.093C139.898 138.093 139.898 143.002 136.481 144.282C133.063 145.562 129.87 143.213 129.87 143.213C129.87 143.213 129.23 133.83 130.081 132.122C130.932 130.413 138.401 134.042 139.898 138.093Z" fill="white" stroke="#2E353A" stroke-miterlimit="10"/>
<path d="M188.686 110.867C188.686 110.867 182.926 111.661 181.518 113.427C180.11 115.194 172.359 157.229 171.962 158.426C171.566 159.622 173.153 163.405 178.132 168.781C183.111 174.157 189.281 175.75 195.252 176.147C201.223 176.544 215.361 173.587 218.746 170.387C222.132 167.187 221.735 158.835 221.735 154.259C221.735 149.683 223.527 118.221 222.331 115.437C221.134 112.653 213.37 110.259 212.18 110.259C210.99 110.259 190.081 110.669 188.686 110.867Z" fill="white"/>
<mask id="mask1_393_4476" style="mask-type:luminance" maskUnits="userSpaceOnUse" x="171" y="110" width="52" height="67">
<path d="M188.686 110.867C188.686 110.867 182.926 111.661 181.518 113.427C180.11 115.194 172.359 157.229 171.962 158.426C171.566 159.622 173.153 163.405 178.132 168.781C183.111 174.157 189.281 175.75 195.252 176.147C201.223 176.544 215.361 173.587 218.746 170.387C222.132 167.187 221.735 158.835 221.735 154.259C221.735 149.683 223.527 118.221 222.331 115.437C221.134 112.653 213.37 110.259 212.18 110.259C210.99 110.259 190.081 110.669 188.686 110.867Z" fill="white"/>
</mask>
<g mask="url(#mask1_393_4476)">
<g style="mix-blend-mode:multiply" opacity="0.49">
<path d="M221.736 154.272C221.736 149.69 223.528 118.234 222.331 115.443C221.134 112.653 213.371 110.272 212.181 110.272C210.99 110.272 190.075 110.669 188.686 110.867C187.637 111.026 186.596 111.239 185.569 111.507C188.129 115.987 193.736 122.541 204.59 123.098C208.828 123.365 213.08 122.91 217.166 121.754L214.83 147.84L196.731 146.138L210.133 153.389L210.99 164.48L220.654 167.136C221.953 163.2 221.736 157.69 221.736 154.272Z" fill="#8D8D8D"/>
</g>
</g>
<path d="M188.686 110.867C188.686 110.867 182.926 111.661 181.518 113.427C180.11 115.194 172.359 157.229 171.962 158.426C171.566 159.622 173.153 163.405 178.132 168.781C183.111 174.157 189.281 175.75 195.252 176.147C201.223 176.544 215.361 173.587 218.746 170.387C222.132 167.187 221.735 158.835 221.735 154.259C221.735 149.683 223.527 118.221 222.331 115.437C221.134 112.653 213.37 110.259 212.18 110.259C210.99 110.259 190.081 110.669 188.686 110.867Z" stroke="#2E353A" stroke-miterlimit="10"/>
<path d="M197.921 155.053C188.813 155.053 177.588 140.973 177.114 140.397L178.618 139.206C178.733 139.347 189.741 153.133 197.921 153.133C200.295 153.133 201.882 152.563 202.637 151.437C203.789 149.722 202.759 147.078 202.746 147.053L204.525 146.323C204.583 146.47 205.965 149.926 204.231 152.512C203.098 154.195 200.961 155.053 197.921 155.053Z" fill="#2E353A" stroke="#2E353A" stroke-miterlimit="10"/>
<path d="M168.838 159.654C169.395 159.162 170.118 158.528 170.758 158.035C170.246 157.971 167.494 157.562 166.726 155.635C165.958 153.709 167.162 150.88 170.112 147.2C179.117 135.987 193.466 133.626 193.613 133.606L193.325 131.616C192.685 131.712 178.125 134.099 168.64 145.914C165.139 150.272 163.904 153.805 164.96 156.416C165.328 157.208 165.866 157.91 166.536 158.47C167.207 159.03 167.993 159.434 168.838 159.654Z" fill="#2E353A" stroke="#2E353A" stroke-miterlimit="10"/>
<path d="M195.766 130.478L192.781 130.317L192.535 134.893L195.52 135.054L195.766 130.478Z" fill="white" stroke="#2E353A" stroke-miterlimit="10"/>
<path d="M201.429 145.05L201.249 148.033L205.823 148.31L206.003 145.327L201.429 145.05Z" fill="white" stroke="#2E353A" stroke-miterlimit="10"/>
<path d="M195.258 126.01L194.061 143.04C194.01 143.803 194.261 144.556 194.761 145.136C195.26 145.716 195.967 146.075 196.73 146.138L213.504 147.462C213.898 147.493 214.293 147.443 214.666 147.316C215.039 147.189 215.383 146.987 215.675 146.723C215.968 146.459 216.204 146.138 216.369 145.78C216.534 145.422 216.624 145.034 216.634 144.64L217.082 126.874C217.101 126.11 216.818 125.37 216.294 124.814C215.771 124.258 215.049 123.931 214.285 123.904L198.285 123.315C197.529 123.28 196.788 123.542 196.223 124.046C195.657 124.549 195.311 125.254 195.258 126.01Z" fill="white" stroke="#2E353A" stroke-miterlimit="10"/>
<path d="M202.919 123.482L202.42 134.362L207.796 134.758L208.487 123.686L202.919 123.482Z" fill="#8D8D8D" stroke="#2E353A" stroke-miterlimit="10"/>
<path d="M215.559 139.738C215.559 140.407 215.361 141.062 214.988 141.619C214.616 142.176 214.087 142.61 213.468 142.866C212.849 143.122 212.168 143.189 211.511 143.058C210.854 142.926 210.251 142.603 209.777 142.129C209.304 141.655 208.982 141.051 208.852 140.394C208.722 139.737 208.79 139.056 209.048 138.437C209.305 137.819 209.74 137.291 210.297 136.919C210.855 136.548 211.51 136.351 212.18 136.352C212.624 136.352 213.064 136.44 213.475 136.61C213.885 136.78 214.258 137.029 214.572 137.344C214.886 137.658 215.134 138.032 215.304 138.442C215.473 138.853 215.56 139.293 215.559 139.738Z" fill="#8D8D8D" stroke="#2E353A" stroke-miterlimit="10"/>
<path d="M128.909 152.922C128.909 152.922 133.709 153.773 137.018 151.322C140.327 148.87 138.509 144.493 135.521 142.042C132.532 139.59 126.458 138.842 124.001 140.013C121.543 141.184 122.829 145.773 123.578 148.23C124.327 150.688 125.601 152.493 128.909 152.922Z" fill="white" stroke="#2E353A" stroke-miterlimit="10"/>
<path d="M104.666 73.9968C104.666 73.9968 107.68 83.4816 97.018 89.0304C86.3556 94.5792 81.2292 94.1504 68.858 102.253C56.4868 110.355 53.498 128.282 53.498 128.282C53.498 128.282 56.4804 120.602 70.5604 119.75C84.6404 118.899 98.7204 118.336 104.269 118.042C112.378 117.613 116.64 112.922 116.64 112.922L104.666 73.9968Z" fill="#8D8D8D" stroke="#2E353A" stroke-miterlimit="10"/>
<path d="M153.082 231.571L104.666 73.9968C104.604 73.7959 104.582 73.5848 104.602 73.3755C104.622 73.1661 104.683 72.9628 104.781 72.7772C104.88 72.5916 105.015 72.4274 105.177 72.294C105.34 72.1606 105.527 72.0607 105.728 72C106.133 71.8777 106.57 71.9201 106.944 72.1178C107.318 72.3154 107.598 72.6526 107.725 73.056L156.16 230.643L153.082 231.571Z" fill="#2E353A" stroke="#2E353A" stroke-miterlimit="10"/>
<path d="M123.578 152.922C123.578 152.922 123.041 154.842 125.39 155.373C127.738 155.904 131.79 154.733 131.578 152.71C131.367 150.688 129.761 150.253 128.058 150.47C126.356 150.688 123.578 151.962 123.578 152.922Z" fill="white" stroke="#2E353A" stroke-miterlimit="10"/>
<path d="M125.6 146.31C125.6 146.31 119.655 147.245 119.405 148.525C119.155 149.805 119.623 152.787 121.21 153.235C122.797 153.683 128.051 153.158 128.999 151.462C129.946 149.766 128.64 146.528 127.418 146.176C127.125 146.057 126.809 146.007 126.493 146.03C126.178 146.053 125.872 146.149 125.6 146.31Z" fill="white" stroke="#2E353A" stroke-miterlimit="10"/>
<path d="M123.93 142.214C123.93 142.214 117.978 143.149 117.728 144.435C117.479 145.722 117.946 148.691 119.539 149.139C121.133 149.587 126.375 149.069 127.328 147.373C128.282 145.677 126.963 142.438 125.747 142.086C125.455 141.966 125.139 141.916 124.824 141.938C124.508 141.96 124.203 142.055 123.93 142.214Z" fill="white" stroke="#2E353A" stroke-miterlimit="10"/>
<path d="M122.682 136.058C122.682 136.058 116.174 135.686 115.642 136.992C115.111 138.298 114.894 141.542 116.474 142.381C118.055 143.219 123.726 143.872 125.121 142.291C126.516 140.71 125.87 136.992 124.66 136.339C124.375 136.141 124.048 136.012 123.705 135.963C123.361 135.915 123.011 135.947 122.682 136.058Z" fill="white" stroke="#2E353A" stroke-miterlimit="10"/>
<path d="M131.706 138.72C131.706 138.72 133.306 135.45 132.161 133.011C131.015 130.573 128.506 131.091 127.444 131.866C126.758 132.387 126.202 133.059 125.818 133.83C125.818 133.83 128.506 133.773 129.658 134.912C130.81 136.051 131.706 138.72 131.706 138.72Z" fill="#2E353A" stroke="#2E353A" stroke-miterlimit="10"/>
<path d="M131.201 134.592C131.122 134.273 130.963 133.98 130.739 133.74C130.515 133.501 130.233 133.322 129.921 133.222C128.641 132.806 126.529 132.371 125.806 133.862C124.737 135.994 124.737 141.542 127.937 142.605C131.137 143.667 131.988 141.114 131.777 138.342C131.685 137.079 131.492 135.825 131.201 134.592Z" fill="white" stroke="#2E353A" stroke-miterlimit="10"/>
<path d="M221.677 160.602C217.837 157.875 210.701 155.264 204.109 159.43C197.517 163.597 197.415 172.902 197.607 176.179C204.333 175.878 215.751 173.216 218.727 170.419C220.852 168.416 221.492 164.429 221.677 160.602Z" fill="#2E353A" stroke="#2E353A" stroke-miterlimit="10"/>
<path d="M203.22 204.442C202.687 205.025 202.3 205.726 202.092 206.489C201.883 207.251 201.86 208.052 202.023 208.826C202.618 211.386 202.023 233.907 202.023 233.907C202.023 233.907 202.222 239.283 211.578 240.678C220.935 242.074 224.122 239.482 224.122 239.482C224.122 239.482 223.924 211.213 223.726 208.026C223.63 206.165 223.008 204.37 221.934 202.848L203.22 204.442Z" fill="white"/>
<mask id="mask2_393_4476" style="mask-type:luminance" maskUnits="userSpaceOnUse" x="201" y="202" width="24" height="40">
<path d="M203.22 204.442C202.687 205.025 202.3 205.726 202.092 206.489C201.883 207.251 201.86 208.052 202.023 208.826C202.618 211.386 202.023 233.907 202.023 233.907C202.023 233.907 202.222 239.283 211.578 240.678C220.935 242.074 224.122 239.482 224.122 239.482C224.122 239.482 223.924 211.213 223.726 208.026C223.63 206.165 223.008 204.37 221.934 202.848L203.22 204.442Z" fill="white"/>
</mask>
<g mask="url(#mask2_393_4476)">
<g style="mix-blend-mode:multiply" opacity="0.49">
<path d="M221.934 202.88L203.22 204.474C202.687 205.057 202.3 205.758 202.092 206.521C201.883 207.283 201.86 208.084 202.023 208.858C202.241 209.786 202.298 213.286 202.286 217.389L220.263 240.851C223.028 240.397 224.103 239.514 224.103 239.514C224.103 239.514 223.905 211.245 223.706 208.058C223.616 206.199 223.001 204.404 221.934 202.88Z" fill="#8D8D8D"/>
</g>
</g>
<path d="M203.22 204.442C202.687 205.025 202.3 205.726 202.092 206.489C201.883 207.251 201.86 208.052 202.023 208.826C202.618 211.386 202.023 233.907 202.023 233.907C202.023 233.907 202.222 239.283 211.578 240.678C220.935 242.074 224.122 239.482 224.122 239.482C224.122 239.482 223.924 211.213 223.726 208.026C223.63 206.165 223.008 204.37 221.934 202.848L203.22 204.442Z" stroke="#2E353A" stroke-miterlimit="10"/>
<path d="M221.537 163.43C221.537 163.43 219.348 160.64 211.201 161.037C203.054 161.434 199.457 171.194 199.681 173.197C199.905 175.2 201.07 201.869 201.87 204.058C202.67 206.246 211.822 208.237 218.593 207.046C225.364 205.856 225.959 199.878 225.166 195.693C224.372 191.507 223.175 167.027 223.175 166.253C223.175 165.478 222.529 164.621 221.537 163.43Z" fill="white"/>
<mask id="mask3_393_4476" style="mask-type:luminance" maskUnits="userSpaceOnUse" x="199" y="160" width="27" height="48">
<path d="M221.537 163.43C221.537 163.43 219.348 160.64 211.201 161.037C203.054 161.434 199.457 171.194 199.681 173.197C199.905 175.2 201.07 201.869 201.87 204.058C202.67 206.246 211.822 208.237 218.593 207.046C225.364 205.856 225.959 199.878 225.166 195.693C224.372 191.507 223.175 167.027 223.175 166.253C223.175 165.478 222.529 164.621 221.537 163.43Z" fill="white"/>
</mask>
<g mask="url(#mask3_393_4476)">
<g style="mix-blend-mode:multiply" opacity="0.49">
<path d="M225.12 195.68C224.32 191.501 223.13 167.014 223.13 166.24C223.13 165.466 222.528 164.646 221.536 163.456C221.114 163.011 220.61 162.653 220.052 162.4L219.092 162.797C219.092 162.797 219.52 167.066 219.52 172.614C219.52 178.163 218.24 196.934 218.24 196.934L200.32 176.877L200.135 182.054C200.608 190.688 201.3 202.637 201.824 204.07C202.618 206.259 211.776 208.25 218.548 207.059C225.319 205.869 225.92 199.866 225.12 195.68Z" fill="#8D8D8D"/>
</g>
</g>
<path d="M221.537 163.43C221.537 163.43 219.348 160.64 211.201 161.037C203.054 161.434 199.457 171.194 199.681 173.197C199.905 175.2 201.07 201.869 201.87 204.058C202.67 206.246 211.822 208.237 218.593 207.046C225.364 205.856 225.959 199.878 225.166 195.693C224.372 191.507 223.175 167.027 223.175 166.253C223.175 165.478 222.529 164.621 221.537 163.43Z" stroke="#2E353A" stroke-miterlimit="10"/>
<path d="M202.42 204.838C202.42 204.838 208.18 210.016 214.964 209.619C221.748 209.222 223.527 204.838 223.527 204.838C223.527 204.838 224.122 202.848 216.359 201.056C208.596 199.264 202.42 204.838 202.42 204.838Z" fill="#2E353A" stroke="#2E353A" stroke-miterlimit="10"/>
<path d="M199.533 118.208C210.007 118.208 218.497 109.039 218.497 97.7279C218.497 86.4171 210.007 77.2479 199.533 77.2479C189.06 77.2479 180.57 86.4171 180.57 97.7279C180.57 109.039 189.06 118.208 199.533 118.208Z" fill="#2E353A" stroke="#2E353A" stroke-miterlimit="10"/>
<path d="M199.534 115.93C211.368 115.93 220.961 106.76 220.961 95.4496C220.961 84.1388 211.368 74.9696 199.534 74.9696C187.7 74.9696 178.106 84.1388 178.106 95.4496C178.106 106.76 187.7 115.93 199.534 115.93Z" fill="white"/>
<mask id="mask4_393_4476" style="mask-type:luminance" maskUnits="userSpaceOnUse" x="178" y="74" width="43" height="42">
<path d="M199.534 115.93C211.368 115.93 220.961 106.76 220.961 95.4496C220.961 84.1388 211.368 74.9696 199.534 74.9696C187.7 74.9696 178.106 84.1388 178.106 95.4496C178.106 106.76 187.7 115.93 199.534 115.93Z" fill="white"/>
</mask>
<g mask="url(#mask4_393_4476)">
<g style="mix-blend-mode:multiply" opacity="0.49">
<path d="M207.732 76.5312C208.462 85.9264 206.119 101.722 185.019 110.515C189.036 114.028 194.197 115.953 199.534 115.93C211.367 115.93 220.961 106.765 220.961 95.4496C220.961 86.9184 215.495 79.6032 207.732 76.5312Z" fill="#8D8D8D"/>
</g>
</g>
<path d="M199.534 115.93C211.368 115.93 220.961 106.76 220.961 95.4496C220.961 84.1388 211.368 74.9696 199.534 74.9696C187.7 74.9696 178.106 84.1388 178.106 95.4496C178.106 106.76 187.7 115.93 199.534 115.93Z" stroke="#2E353A" stroke-miterlimit="10"/>
<path d="M177.818 94.3103C179.126 94.3103 180.186 93.2502 180.186 91.9423C180.186 90.6345 179.126 89.5743 177.818 89.5743C176.51 89.5743 175.45 90.6345 175.45 91.9423C175.45 93.2502 176.51 94.3103 177.818 94.3103Z" fill="white" stroke="#2E353A" stroke-miterlimit="10"/>
<path d="M177.818 93.3632C178.603 93.3632 179.239 92.7271 179.239 91.9424C179.239 91.1577 178.603 90.5216 177.818 90.5216C177.034 90.5216 176.397 91.1577 176.397 91.9424C176.397 92.7271 177.034 93.3632 177.818 93.3632Z" fill="white" stroke="#2E353A" stroke-miterlimit="10"/>
<path d="M199.246 112.704C208.934 112.704 216.788 106.125 216.788 98.0096C216.788 89.8941 208.934 83.3152 199.246 83.3152C189.557 83.3152 181.703 89.8941 181.703 98.0096C181.703 106.125 189.557 112.704 199.246 112.704Z" fill="#2E353A" stroke="#2E353A" stroke-miterlimit="10"/>
<path d="M185.107 90.9504V97.7792L186.202 92.5888L189.203 98.8736V91.7696L200.96 108.704L192.768 89.856H196.608L193.875 87.3984L198.791 86.0352L192.512 85.4912C192.512 85.4912 187.565 86.8544 185.107 90.9504Z" fill="#8D8D8D"/>
<path d="M235.149 123.43L235.668 123.725C238.394 125.261 251.028 132.486 254.061 135.77C257.428 139.456 249.581 144.909 242.842 146.509C236.103 148.109 223.13 136.736 221.204 134.49C219.277 132.243 217.517 120.224 222.004 117.984C226.49 115.744 235.149 123.43 235.149 123.43Z" fill="white"/>
<mask id="mask5_393_4476" style="mask-type:luminance" maskUnits="userSpaceOnUse" x="219" y="117" width="36" height="30">
<path d="M235.149 123.43L235.668 123.725C238.394 125.261 251.028 132.486 254.061 135.77C257.428 139.456 249.581 144.909 242.842 146.509C236.103 148.109 223.13 136.736 221.204 134.49C219.277 132.243 217.517 120.224 222.004 117.984C226.49 115.744 235.149 123.43 235.149 123.43Z" fill="white"/>
</mask>
<g mask="url(#mask5_393_4476)">
<g style="mix-blend-mode:multiply" opacity="0.49">
<path d="M254.08 135.77C251.079 132.486 238.413 125.261 235.687 123.725L235.168 123.43C235.168 123.43 226.509 115.75 222.023 117.984C217.536 120.218 219.303 132.25 221.223 134.49C223.247 136.573 225.443 138.48 227.789 140.192L240 129.491L254.541 139.091C254.82 138.559 254.925 137.952 254.843 137.357C254.76 136.761 254.494 136.206 254.08 135.77Z" fill="#8D8D8D"/>
</g>
</g>
<path d="M235.149 123.43L235.668 123.725C238.394 125.261 251.028 132.486 254.061 135.77C257.428 139.456 249.581 144.909 242.842 146.509C236.103 148.109 223.13 136.736 221.204 134.49C219.277 132.243 217.517 120.224 222.004 117.984C226.49 115.744 235.149 123.43 235.149 123.43Z" stroke="#2E353A" stroke-miterlimit="10"/>
<path d="M217.229 112.691C218.276 111.663 219.516 110.852 220.877 110.304C230.042 106.822 234.957 117.286 236.666 124.442C236.666 124.442 234.528 126.15 229.197 125.293C223.866 124.435 216.186 120.813 215.328 117.824C214.797 115.962 215.783 114.125 217.229 112.691Z" fill="#2E353A" stroke="#2E353A" stroke-miterlimit="10"/>
<path d="M234.989 143.302C234.989 143.302 243.802 132.89 250.055 132.73C256.308 132.57 259.2 137.376 258.56 141.222C257.92 145.069 253.114 149.395 253.114 149.395C253.114 149.395 256.48 137.875 251.508 137.875C246.535 137.875 234.989 143.302 234.989 143.302Z" fill="#2E353A" stroke="#2E353A" stroke-miterlimit="10"/>
<path d="M231.783 145.709C231.783 145.709 242.362 137.056 249.895 135.936C257.428 134.816 260.135 143.949 253.095 149.376C246.055 154.803 241.389 157.056 236.423 156.416C231.456 155.776 227.456 150.842 231.783 145.709Z" fill="white"/>
<mask id="mask6_393_4476" style="mask-type:luminance" maskUnits="userSpaceOnUse" x="229" y="135" width="29" height="22">
<path d="M231.783 145.709C231.783 145.709 242.362 137.056 249.895 135.936C257.428 134.816 260.135 143.949 253.095 149.376C246.055 154.803 241.389 157.056 236.423 156.416C231.456 155.776 227.456 150.842 231.783 145.709Z" fill="white"/>
</mask>
<g mask="url(#mask6_393_4476)">
<g style="mix-blend-mode:multiply" opacity="0.49">
<path d="M254.163 136.563C254.272 138.426 253.715 143.194 245.971 146.56C236.16 150.829 234.189 150.842 234.189 150.842C234.48 152.426 234.208 154.063 233.421 155.469C234.354 155.979 235.374 156.311 236.429 156.448C241.395 157.088 246.029 154.848 253.101 149.408C258.56 145.165 258.151 138.714 254.163 136.563Z" fill="#8D8D8D"/>
</g>
</g>
<path d="M231.783 145.709C231.783 145.709 242.362 137.056 249.895 135.936C257.428 134.816 260.135 143.949 253.095 149.376C246.055 154.803 241.389 157.056 236.423 156.416C231.456 155.776 227.456 150.842 231.783 145.709Z" stroke="#2E353A" stroke-miterlimit="10"/>
<path d="M239.303 154.707C239.303 154.707 254.663 148.307 257.357 139.123" stroke="#2E353A" stroke-width="0.5" stroke-miterlimit="10"/>
<path d="M227.937 149.075C227.937 149.075 229.857 146.515 232.583 146.189C235.309 145.862 238.196 149.715 239.156 152.922C240.116 156.128 238.836 157.728 237.389 158.208C235.943 158.688 227.937 149.075 227.937 149.075Z" fill="#2E353A" stroke="#2E353A" stroke-miterlimit="10"/>
<path d="M237.389 158.208C237.389 158.208 238.356 155.168 234.189 150.842C230.023 146.515 228.577 148.922 224.89 151.002C221.204 153.082 219.924 156.762 221.524 159.322C223.124 161.882 223.77 163.488 228.564 164.288C233.357 165.088 236.097 160.122 236.097 160.122C236.741 159.657 237.199 158.979 237.389 158.208Z" fill="white"/>
<mask id="mask7_393_4476" style="mask-type:luminance" maskUnits="userSpaceOnUse" x="220" y="148" width="18" height="17">
<path d="M237.389 158.208C237.389 158.208 238.356 155.168 234.189 150.842C230.023 146.515 228.577 148.922 224.89 151.002C221.204 153.082 219.924 156.762 221.524 159.322C223.124 161.882 223.77 163.488 228.564 164.288C233.357 165.088 236.097 160.122 236.097 160.122C236.741 159.657 237.199 158.979 237.389 158.208Z" fill="white"/>
</mask>
<g mask="url(#mask7_393_4476)">
<g style="mix-blend-mode:multiply" opacity="0.49">
<path d="M230.612 157.651C227.735 158.604 224.783 159.308 221.786 159.757C223.213 162.074 224.039 163.546 228.577 164.301C233.383 165.101 236.109 160.134 236.109 160.134C236.75 159.666 237.204 158.986 237.389 158.214C237.389 158.214 238.356 155.174 234.189 150.848C234.189 150.842 235.309 155.949 230.612 157.651Z" fill="#8D8D8D"/>
</g>
</g>
<path d="M237.389 158.208C237.389 158.208 238.356 155.168 234.189 150.842C230.023 146.515 228.577 148.922 224.89 151.002C221.204 153.082 219.924 156.762 221.524 159.322C223.124 161.882 223.77 163.488 228.564 164.288C233.357 165.088 236.097 160.122 236.097 160.122C236.741 159.657 237.199 158.979 237.389 158.208Z" stroke="#2E353A" stroke-miterlimit="10"/>
<path d="M236.11 160.134C236.11 160.134 232.423 162.381 230.177 162.541Z" fill="white"/>
<path d="M236.11 160.134C236.11 160.134 232.423 162.381 230.177 162.541" stroke="#2E353A" stroke-miterlimit="10"/>
<path d="M129.441 264.813C129.441 264.813 123.47 260.55 129.018 255.002C134.567 249.453 138.401 250.733 140.538 245.613C142.676 240.493 144.801 231.11 160.59 225.562C176.378 220.013 192.161 224.71 199.841 230.253C207.521 235.795 221.601 239.642 229.281 238.79C236.961 237.939 246.35 245.613 247.63 252.442C248.91 259.27 251.47 260.122 252.75 261.402C254.03 262.682 255.31 266.093 255.31 266.093H139.258C139.258 266.093 132.43 266.95 129.441 264.813Z" fill="#2E353A" stroke="#2E353A" stroke-miterlimit="10"/>
<path d="M238.938 245.69C238.938 245.69 242.586 251.155 240.307 255.718C238.029 260.282 233.907 260.275 233.907 260.275" stroke="white" stroke-miterlimit="10"/>
<path d="M232.103 257.542C232.103 257.542 232.103 259.36 225.703 261.645" stroke="white" stroke-miterlimit="10"/>
<path d="M172.16 263.456C170.144 264.026 168.736 264.378 168.736 264.378" stroke="white" stroke-miterlimit="10"/>
<path d="M192.954 243.123C190.842 244.89 188.564 247.283 187.879 249.792C186.516 254.803 188.794 255.718 185.146 258.451C183.117 259.974 178.273 261.651 174.375 262.81" stroke="white" stroke-miterlimit="10"/>
<path d="M196.999 240.218C196.999 240.218 196.129 240.73 194.919 241.594" stroke="white" stroke-miterlimit="10"/>
<path d="M177.396 256.173C177.396 256.173 170.996 260.275 165.543 262.099C160.09 263.923 147.764 260.73 147.764 260.73" stroke="white" stroke-miterlimit="10"/>
<path d="M146.01 257.6C143.794 256.565 141.885 254.972 140.468 252.979" stroke="white" stroke-miterlimit="10"/>
<path d="M152.321 259.36C151.096 259.251 149.886 259.013 148.711 258.65" stroke="white" stroke-miterlimit="10"/>
<path d="M184.909 157.722C179.744 153.376 175.277 153.882 172.711 154.81C172.301 156.909 172.026 158.253 171.962 158.451C171.559 159.648 173.152 163.43 178.132 168.806C181.314 172.229 185.496 174.558 190.08 175.462C191.316 170.656 191.565 163.328 184.909 157.722Z" fill="#2E353A" stroke="#2E353A" stroke-miterlimit="10"/>
<path d="M166.4 224.153C166.4 224.153 157.024 229.12 156.8 234.509C156.576 239.898 162.176 239.885 168.32 238.291C174.464 236.697 182.452 230.125 183.847 229.53C185.242 228.934 190.016 226.144 189.024 222.163C188.032 218.182 182.624 214.4 182.624 214.4L166.4 224.153Z" fill="white" stroke="#2E353A" stroke-miterlimit="10"/>
<path d="M189.146 222.566C183.783 226.451 171.866 234.784 166.586 236.301C164.954 236.824 163.222 236.958 161.529 236.69C159.836 236.422 158.229 235.76 156.839 234.758C156.839 239.878 162.304 239.878 168.359 238.291C174.528 236.698 182.49 230.125 183.885 229.53C185.28 228.934 189.735 226.33 189.146 222.566Z" fill="#8D8D8D" stroke="#2E353A" stroke-miterlimit="10"/>
<path d="M155.636 202.054C155.636 202.054 162.004 222.534 164.391 224.55C166.778 226.566 176.935 224.947 176.935 224.947C176.935 224.947 179.124 228.934 180.717 230.707C182.311 232.48 187.117 231.104 187.29 226.125C187.463 221.146 184.5 214.182 184.5 214.182L177.735 195.462C177.735 195.462 169.767 193.869 162.375 195.462C154.983 197.056 155.636 202.054 155.636 202.054Z" fill="white"/>
<mask id="mask8_393_4476" style="mask-type:luminance" maskUnits="userSpaceOnUse" x="155" y="194" width="33" height="38">
<path d="M155.636 202.054C155.636 202.054 162.004 222.534 164.391 224.55C166.778 226.566 176.935 224.947 176.935 224.947C176.935 224.947 179.124 228.934 180.717 230.707C182.311 232.48 187.117 231.104 187.29 226.125C187.463 221.146 184.5 214.182 184.5 214.182L177.735 195.462C177.735 195.462 169.767 193.869 162.375 195.462C154.983 197.056 155.636 202.054 155.636 202.054Z" fill="white"/>
</mask>
<g mask="url(#mask8_393_4476)">
<g style="mix-blend-mode:multiply" opacity="0.49">
<path d="M187.29 226.144C187.488 221.165 184.5 214.202 184.5 214.202L177.735 195.482C173.51 194.735 169.2 194.593 164.935 195.059C163.324 195.59 161.671 195.982 159.994 196.23C158.702 196.727 157.571 197.568 156.724 198.662C158.42 199.206 160.352 199.782 162.368 200.32C168.768 202.029 170.9 199.469 172.18 204.589C173.46 209.709 174.906 220.141 176.954 224.947C176.954 224.947 179.143 228.934 180.736 230.707C182.33 232.48 187.092 231.123 187.29 226.144Z" fill="#8D8D8D"/>
</g>
</g>
<path d="M155.636 202.054C155.636 202.054 162.004 222.534 164.391 224.55C166.778 226.566 176.935 224.947 176.935 224.947C176.935 224.947 179.124 228.934 180.717 230.707C182.311 232.48 187.117 231.104 187.29 226.125C187.463 221.146 184.5 214.182 184.5 214.182L177.735 195.462C177.735 195.462 169.767 193.869 162.375 195.462C154.983 197.056 155.636 202.054 155.636 202.054Z" stroke="#2E353A" stroke-miterlimit="10"/>
<path d="M184.698 224.058C184.902 225.17 184.964 226.303 184.884 227.43" stroke="#2E353A" stroke-width="0.5" stroke-miterlimit="10"/>
<path d="M175.488 200.224C175.488 200.224 182.125 213.024 184.269 221.984" stroke="#2E353A" stroke-width="0.5" stroke-miterlimit="10"/>
<path d="M154.836 192.499C154.836 192.499 151.853 196.282 153.645 200.858C155.437 205.434 162.605 206.618 168.775 204.442C174.945 202.266 178.33 196.877 177.537 194.093C176.743 191.309 154.836 192.499 154.836 192.499Z" fill="#2E353A" stroke="#2E353A" stroke-miterlimit="10"/>
<path d="M189.479 173.984C189.479 173.984 181.517 192.301 176.339 196.083C171.162 199.866 159.616 200.064 155.437 195.482C151.258 190.899 156.231 180.154 161.408 171.802C166.586 163.45 169.171 156.275 174.944 156.672C180.717 157.069 190.279 164.224 189.479 173.984Z" fill="white"/>
<mask id="mask9_393_4476" style="mask-type:luminance" maskUnits="userSpaceOnUse" x="153" y="156" width="37" height="43">
<path d="M189.479 173.984C189.479 173.984 181.517 192.301 176.339 196.083C171.162 199.866 159.616 200.064 155.437 195.482C151.258 190.899 156.231 180.154 161.408 171.802C166.586 163.45 169.171 156.275 174.944 156.672C180.717 157.069 190.279 164.224 189.479 173.984Z" fill="white"/>
</mask>
<g mask="url(#mask9_393_4476)">
<g style="mix-blend-mode:multiply" opacity="0.49">
<path d="M171.732 191.36C167.252 195.13 161.223 196.294 156.711 196.582C161.613 200 171.623 199.526 176.34 196.083C181.517 192.301 189.479 173.984 189.479 173.984C189.648 171.883 189.344 169.77 188.589 167.802C186.343 171.91 178.561 185.6 171.732 191.36Z" fill="#8D8D8D"/>
</g>
</g>
<path d="M189.479 173.984C189.479 173.984 181.517 192.301 176.339 196.083C171.162 199.866 159.616 200.064 155.437 195.482C151.258 190.899 156.231 180.154 161.408 171.802C166.586 163.45 169.171 156.275 174.944 156.672C180.717 157.069 190.279 164.224 189.479 173.984Z" stroke="#2E353A" stroke-miterlimit="10"/>
<path d="M171.597 196.864C170.875 197.324 170.105 197.704 169.3 197.997" stroke="#2E353A" stroke-width="0.5" stroke-miterlimit="10"/>
<path d="M186.926 175.629C184.455 180.896 179.822 189.709 174.395 194.694" stroke="#2E353A" stroke-width="0.5" stroke-miterlimit="10"/>
<path d="M188.845 171.283C188.845 171.283 188.41 172.371 187.623 174.118" stroke="#2E353A" stroke-width="0.5" stroke-miterlimit="10"/>
</svg>
